<?xml version="1.0" encoding="UTF-8" standalone="no"?>
<!-- Created with Inkscape (http://www.inkscape.org/) -->

<svg
   xmlns:dc="http://purl.org/dc/elements/1.1/"
   xmlns:cc="http://creativecommons.org/ns#"
   xmlns:rdf="http://www.w3.org/1999/02/22-rdf-syntax-ns#"
   xmlns:svg="http://www.w3.org/2000/svg"
   xmlns="http://www.w3.org/2000/svg"
   xmlns:sodipodi="http://sodipodi.sourceforge.net/DTD/sodipodi-0.dtd"
   xmlns:inkscape="http://www.inkscape.org/namespaces/inkscape"
   width="744.09448819"
   height="1052.3622047"
   id="svg3055"
   version="1.1"
   inkscape:version="0.48.4 r9939"
   sodipodi:docname="New document 3">
  <defs
     id="defs3057" />
  <sodipodi:namedview
     id="base"
     pagecolor="#ffffff"
     bordercolor="#666666"
     borderopacity="1.0"
     inkscape:pageopacity="0.0"
     inkscape:pageshadow="2"
     inkscape:zoom="0.98994949"
     inkscape:cx="186.32839"
     inkscape:cy="786.60705"
     inkscape:document-units="px"
     inkscape:current-layer="layer1"
     showgrid="false"
     inkscape:window-width="1366"
     inkscape:window-height="706"
     inkscape:window-x="-8"
     inkscape:window-y="-8"
     inkscape:window-maximized="1" />
  <metadata
     id="metadata3060">
    <rdf:RDF>
      <cc:Work
         rdf:about="">
        <dc:format>image/svg+xml</dc:format>
        <dc:type
           rdf:resource="http://purl.org/dc/dcmitype/StillImage" />
        <dc:title></dc:title>
      </cc:Work>
    </rdf:RDF>
  </metadata>
  <g
     inkscape:label="Layer 1"
     inkscape:groupmode="layer"
     id="layer1">
    <path
       style="font-size:198.67835998999999000px;font-style:normal;font-variant:normal;font-weight:normal;font-stretch:normal;text-align:start;line-height:125%;letter-spacing:0px;word-spacing:0px;writing-mode:lr-tb;text-anchor:start;fill:#ffffff;fill-opacity:1;stroke:#f2f2f2;stroke-width:3;stroke-miterlimit:4;stroke-dasharray:none;display:inline;font-family:Space Bd BT;-inkscape-font-specification:Space Bd BT"
       d="m 264.12079,225.96783 c -2.18474,0.1012 -4.34618,0.48236 -6.4375,1.125 -5.57695,1.71387 -10.37451,5.2378 -14.40624,10.62499 l -85.46876,129.96875 29.28125,-1.4375 73.875,-111.59374 c 1.05501,-1.48443 2.07682,-2.45456 3.0625,-2.9375 0.98555,-0.48283 2.05612,-0.52294 3.21875,-0.125 1.22368,0.41901 2.12258,1.11916 2.65625,2.15625 0.53352,1.03723 0.77375,2.46035 0.71875,4.21875 l -2.15625,108.62499 24.90625,-0.53125 1.40625,-110.68749 c -0.12741,-7.01613 -1.82765,-12.84072 -5.0625,-17.46876 -3.23503,-4.62786 -7.979,-8.02984 -14.28125,-10.18749 -3.90076,-1.33534 -7.67127,-1.91867 -11.3125,-1.75 z"
       id="path3031-4"
       inkscape:export-filename="D:\Downloads\Photos\adriano photo\sito\images\logo.png"
       inkscape:export-xdpi="18.860001"
       inkscape:export-ydpi="18.860001"
       inkscape:connector-curvature="0" />
    <path
       style="font-size:198.67835998999999000px;font-style:normal;font-variant:normal;font-weight:normal;font-stretch:normal;text-align:start;line-height:125%;letter-spacing:0px;word-spacing:0px;writing-mode:lr-tb;text-anchor:start;fill:#ffffff;fill-opacity:1;stroke:#f2f2f2;stroke-width:2.84930372000000000;stroke-miterlimit:4;stroke-dasharray:none;display:inline;font-family:Space Bd BT;-inkscape-font-specification:Space Bd BT"
       d="m 418.16311,248.39248 -23.03304,8.85368 2.16815,77.30539 c 0.0553,1.76016 -0.17028,3.15191 -0.64763,4.1922 -0.4775,1.04018 -1.26403,1.76607 -2.36525,2.18996 -0.90417,0.34788 -1.74706,0.34233 -2.5342,0.0312 l -30.22532,-43.03484 -14.55756,-21.89955 -0.12872,-0.20111 c -3.57459,-5.08655 -7.77655,-8.46479 -12.64283,-10.10508 -5.0305,-1.69554 -10.37692,-1.47315 -15.9936,0.68827 -5.67159,2.18277 -9.94003,5.61683 -12.83993,10.26151 -2.89973,4.64482 -4.41318,10.46395 -4.50524,17.48835 l 0.92921,88.66188 23.03303,-8.85368 -2.16814,-77.27411 c -0.0553,-1.76015 0.14211,-3.18318 0.61947,-4.22348 0.4775,-1.04018 1.29217,-1.76607 2.39341,-2.18996 0.90415,-0.34788 1.74705,-0.34233 2.53419,-0.0312 l 29.39669,42.64154 15.35803,22.47162 0.12873,0.16976 c 3.58055,5.10884 7.792,8.31302 12.67098,9.95759 5.03052,1.69554 10.34876,1.47314 15.96544,-0.68827 5.6716,-2.18277 9.9682,-5.61682 12.86809,-10.26151 2.89973,-4.64482 4.38503,-10.46394 4.47709,-17.48835 z"
       id="path3010-7-0"
       inkscape:connector-curvature="0"
       sodipodi:nodetypes="ccccccccccccccccccccccccccc"
       inkscape:export-filename="D:\Downloads\Photos\adriano photo\sito\images\logo.png"
       inkscape:export-xdpi="18.860001"
       inkscape:export-ydpi="18.860001" />
    <path
       sodipodi:type="inkscape:offset"
       inkscape:radius="11.39954"
       inkscape:original="M 302.59375 128.6875 C 204.3851 128.6875 124.625 208.4476 124.625 306.65625 C 124.625 404.86489 204.3834 484.65625 302.59375 484.65625 C 400.80409 484.65625 480.59375 404.86659 480.59375 306.65625 C 480.59375 208.4459 400.80239 128.6875 302.59375 128.6875 z M 302.59375 131.6875 C 399.17871 131.6875 477.59375 210.07022 477.59375 306.65625 C 477.59375 403.24229 399.17979 481.65625 302.59375 481.65625 C 206.00772 481.65625 127.625 403.24121 127.625 306.65625 C 127.625 210.0713 206.0088 131.6875 302.59375 131.6875 z "
       style="font-size:medium;font-style:normal;font-variant:normal;font-weight:normal;font-stretch:normal;text-indent:0;text-align:start;text-decoration:none;line-height:normal;letter-spacing:normal;word-spacing:normal;text-transform:none;direction:ltr;block-progression:tb;writing-mode:lr-tb;text-anchor:start;baseline-shift:baseline;color:#000000;fill:#ffffff;fill-opacity:1;stroke:#ececec;stroke-width:3;marker:none;visibility:visible;display:inline;overflow:visible;enable-background:accumulate;font-family:Sans;-inkscape-font-specification:Sans"
       id="path4009"
       d="m 302.59375,117.28125 c -104.38074,0 -189.375,84.99426 -189.375,189.375 0,104.3806 84.99025,189.40625 189.375,189.40625 C 406.97836,496.0625 492,411.04086 492,306.65625 492,202.2715 406.97435,117.28125 302.59375,117.28125 z m 0,25.8125 c 90.41749,0 163.59375,73.14641 163.59375,163.5625 0,90.41618 -73.17757,163.59375 -163.59375,163.59375 -90.41609,0 -163.5625,-73.17626 -163.5625,-163.59375 0,-90.4174 73.1451,-163.5625 163.5625,-163.5625 z"
       transform="translate(-6,4)"
       inkscape:export-filename="D:\Downloads\Photos\adriano photo\sito\images\logo.png"
       inkscape:export-xdpi="15.56"
       inkscape:export-ydpi="15.56" />
  </g>
</svg>
