<?xml version="1.0" standalone="no"?>
<!DOCTYPE svg PUBLIC "-//W3C//DTD SVG 20010904//EN"
 "http://www.w3.org/TR/2001/REC-SVG-20010904/DTD/svg10.dtd">
<svg version="1.0" xmlns="http://www.w3.org/2000/svg"
 width="260.000000pt" height="260.000000pt" viewBox="0 0 260.000000 260.000000"
 preserveAspectRatio="xMidYMid meet">
<metadata>
Created by potrace 1.11, written by Peter Selinger 2001-2013
</metadata>
<g transform="translate(0.000000,260.000000) scale(0.100000,-0.100000)"
fill="#000000" stroke="none">
<path d="M1105 2584 c-283 -47 -517 -165 -711 -358 -268 -267 -396 -581 -389
-951 7 -347 134 -647 379 -890 252 -251 543 -374 892 -380 177 -3 299 16 455
70 302 106 563 332 721 625 24 45 68 145 73 165 1 5 5 17 8 25 12 30 37 128
43 166 3 21 9 58 14 82 13 72 4 319 -15 407 -59 274 -169 481 -359 670 -191
190 -398 302 -671 360 -98 21 -340 26 -440 9z m380 -198 c72 -10 164 -34 180
-48 5 -4 16 -8 25 -8 23 0 157 -70 236 -123 234 -157 424 -454 460 -720 2 -15
6 -39 9 -55 3 -15 5 -73 6 -129 1 -408 -222 -782 -581 -975 -53 -28 -148 -70
-170 -74 -3 0 -12 -3 -20 -7 -8 -3 -28 -9 -45 -13 -16 -4 -34 -8 -40 -10 -5
-1 -28 -5 -50 -9 -22 -3 -51 -8 -65 -11 -34 -6 -229 -6 -260 0 -14 3 -42 8
-62 10 -113 15 -272 77 -398 155 -246 153 -441 437 -490 712 -6 32 -12 71 -15
86 -14 79 -4 279 20 378 18 79 26 102 68 199 133 312 417 548 760 631 124 30
267 33 432 11z"/>
<path d="M1027 1875 c-22 -7 -50 -24 -64 -37 -23 -20 -141 -195 -421 -623 -47
-71 -112 -170 -144 -218 -32 -49 -58 -90 -58 -92 0 -7 215 6 222 13 3 4 117
174 251 377 135 204 251 376 257 383 6 6 18 12 26 12 15 0 15 -40 10 -390 l-7
-390 95 0 96 0 1 148 c3 673 3 676 -13 712 -9 19 -27 45 -40 57 -51 48 -149
71 -211 48z"/>
<path d="M2035 1700 l-70 -28 1 -104 c1 -57 3 -180 5 -275 2 -107 0 -176 -6
-182 -7 -7 -49 45 -125 155 -246 354 -237 344 -318 352 -82 7 -142 -30 -182
-113 -18 -37 -19 -62 -17 -372 1 -183 5 -333 9 -333 3 0 43 14 87 31 l82 31
-3 276 c-2 160 1 279 6 282 5 3 79 -96 164 -220 161 -234 185 -263 240 -281
56 -18 147 9 185 55 50 60 51 73 47 534 -2 255 8 237 -105 192z"/>
</g>
</svg>
